<svg id="visual" viewBox="0 0 960 540" width="960" height="540" xmlns="http://www.w3.org/2000/svg" xmlns:xlink="http://www.w3.org/1999/xlink" version="1.1"><g transform="translate(957.6936458201385 618.554253990247)"><path d="M300.8 -517.2C393.6 -467.4 475.2 -394.5 493.6 -304.4C511.9 -214.3 466.9 -107.2 468.8 1.1C470.6 109.3 519.4 218.7 489.9 289.4C460.4 360.1 352.7 392.2 258 413.6C163.3 434.9 81.7 445.5 -0.2 445.7C-82 446 -164 436.1 -226.5 396.1C-289 356.2 -332 286.4 -362 215.3C-392 144.3 -409 72.2 -437.6 -16.5C-466.2 -105.2 -506.3 -210.3 -491.6 -307.8C-476.8 -405.2 -407.2 -494.9 -316.1 -545.6C-225 -596.4 -112.5 -608.2 -4.3 -600.8C104 -593.5 208 -566.9 300.8 -517.2" fill="#ff9800"></path></g></svg>