<svg id="visual" viewBox="0 0 540 960" width="540" height="960" xmlns="http://www.w3.org/2000/svg" xmlns:xlink="http://www.w3.org/1999/xlink" version="1.1"><g transform="translate(551.7571979617887 -83.91802836627883)"><path d="M177.6 -352C219.9 -283.2 236.8 -214.9 314.2 -156.3C391.5 -97.7 529.2 -48.8 573.7 25.7C618.2 100.2 569.3 200.3 492.5 259.8C415.7 319.3 310.8 338 224.1 411.7C137.3 485.4 68.7 613.9 -13.9 638C-96.5 662.1 -193 581.8 -265.5 499.9C-337.9 418 -386.3 334.5 -461.6 250.9C-536.8 167.3 -638.9 83.7 -608.7 17.4C-578.6 -48.8 -416.2 -97.7 -315.9 -137.9C-215.6 -178 -177.4 -209.6 -135.1 -278.3C-92.8 -347.1 -46.4 -453 10.6 -471.5C67.7 -489.9 135.3 -420.7 177.6 -352" fill="#ff9800"></path></g></svg>