<svg id="visual" viewBox="0 0 900 600" width="900" height="600" xmlns="http://www.w3.org/2000/svg" xmlns:xlink="http://www.w3.org/1999/xlink" version="1.1"><g transform="translate(986.0591238304856 660.2462806434924)"><path d="M334 -573.2C419 -529.4 464.6 -412 480.4 -304.2C496.3 -196.3 482.5 -98.2 483.3 0.4C484 99 499.2 198 461 267.1C422.8 336.3 331.1 375.6 245.4 409.1C159.7 442.6 79.8 470.3 -2.8 475.2C-85.5 480.1 -171 462.2 -254 427.1C-337 392 -417.5 339.8 -499.7 265.7C-582 191.7 -666 95.8 -659.9 3.5C-653.9 -88.8 -557.7 -177.7 -491 -278.6C-424.2 -379.5 -386.9 -492.4 -309.9 -540.8C-233 -589.2 -116.5 -573.1 4 -580C124.5 -587 249 -616.9 334 -573.2" fill="#ff9800"></path></g></svg>