<svg id="visual" viewBox="0 0 540 960" width="540" height="960" xmlns="http://www.w3.org/2000/svg" xmlns:xlink="http://www.w3.org/1999/xlink" version="1.1"><g transform="translate(597.2597335470011 -78.12246313082781)"><path d="M205.3 -351.9C270 -318.2 329 -271.1 367.3 -210.2C405.7 -149.3 423.3 -74.7 453.1 17.2C482.8 109 524.6 218 506.5 314C488.4 410 410.5 492.9 316.1 550.9C221.7 608.9 110.8 642 12.3 620.6C-86.2 599.2 -172.3 523.5 -268.5 466.5C-364.6 409.5 -470.7 371.2 -539.9 296.6C-609.2 222 -641.6 111 -617.5 13.9C-593.4 -83.2 -512.8 -166.3 -450.4 -252.9C-388.1 -339.5 -344 -429.6 -272 -459C-200 -488.4 -100 -457.2 -14.8 -431.5C70.3 -405.8 140.6 -385.6 205.3 -351.9" fill="#ff9800"></path></g></svg>