<svg id="visual" viewBox="0 0 540 960" width="540" height="960" xmlns="http://www.w3.org/2000/svg" xmlns:xlink="http://www.w3.org/1999/xlink" version="1.1"><g transform="translate(524.3040664867319 32.42635329945375)"><path d="M277.7 -513.8C346.7 -441.1 380.3 -340 416.6 -249.7C453 -159.3 492 -79.7 500.1 4.7C508.2 89 485.3 178 448.5 267.5C411.6 357 360.8 447 283.7 498.8C206.7 550.6 103.3 564.3 14.6 539.1C-74.2 513.8 -148.3 449.6 -226.4 398.3C-304.5 347.1 -386.5 308.8 -419.7 244.6C-453 180.3 -437.4 90.2 -446.1 -5C-454.8 -100.2 -487.6 -200.3 -458.6 -271.9C-429.7 -343.5 -338.8 -386.5 -252.1 -448.9C-165.3 -511.4 -82.7 -593.2 10.8 -611.9C104.3 -630.7 208.7 -586.4 277.7 -513.8" fill="#ff9800"></path></g></svg>