<svg id="visual" viewBox="0 0 960 540" width="960" height="540" xmlns="http://www.w3.org/2000/svg" xmlns:xlink="http://www.w3.org/1999/xlink" version="1.1"><g transform="translate(918.3074520790411 454.5407593958586)"><path d="M258 -431.6C335.4 -402.3 399.8 -335.1 444.1 -256.9C488.5 -178.7 512.7 -89.3 527.7 8.7C542.8 106.7 548.5 213.3 494.1 274.1C439.7 334.9 325.1 349.7 232.7 408.9C140.3 468.1 70.2 571.5 -20.7 607.3C-111.5 643.1 -223 611.2 -286.4 535.3C-349.7 459.4 -365 339.5 -379.5 242.9C-394.1 146.3 -408 73.2 -427.5 -11.2C-447 -95.7 -472 -191.3 -437.6 -253.5C-403.2 -315.8 -309.4 -344.5 -226.5 -370.7C-143.7 -396.8 -71.8 -420.4 9.2 -436.4C90.3 -452.5 180.7 -460.9 258 -431.6" fill="#ff9800"></path></g></svg>