<svg id="visual" viewBox="0 0 960 540" width="960" height="540" xmlns="http://www.w3.org/2000/svg" xmlns:xlink="http://www.w3.org/1999/xlink" version="1.1"><g transform="translate(937.8363422296355 25.59645230600053)"><path d="M87.1 -148.2C112.6 -119.2 132.7 -94.5 161.8 -64.1C191 -33.7 229.1 2.4 220.6 28.7C212.2 55.1 157.1 71.8 121.5 95.7C85.9 119.7 69.7 151 44.7 163.6C19.6 176.2 -14.3 170.2 -41.8 155.9C-69.4 141.7 -90.6 119.3 -115.8 96.7C-140.9 74.1 -169.9 51.4 -176.1 23.9C-182.4 -3.6 -165.8 -35.9 -153.6 -73.3C-141.4 -110.8 -133.7 -153.4 -108.8 -182.7C-84 -212 -42 -228 -5.6 -219.3C30.8 -210.6 61.6 -177.2 87.1 -148.2" fill="#dd74c9"></path></g></svg>