<svg id="visual" viewBox="0 0 540 960" width="540" height="960" xmlns="http://www.w3.org/2000/svg" xmlns:xlink="http://www.w3.org/1999/xlink" version="1.1"><g transform="translate(525.7503117323795 -58.26216032405381)"><path d="M76.9 -119.2C98 -106.2 112.2 -82 138.2 -54.5C164.1 -27 201.8 3.7 208.9 37.7C215.9 71.6 192.2 108.8 165 146.3C137.7 183.7 106.9 221.4 66.2 239.9C25.5 258.4 -25 257.8 -69.1 241.9C-113.3 226 -151.1 194.9 -160.8 155.2C-170.5 115.5 -152.1 67.4 -156.4 23.8C-160.6 -19.9 -187.7 -59 -180.4 -85.6C-173.2 -112.2 -131.7 -126.3 -96 -132.7C-60.2 -139 -30.1 -137.5 -1.1 -135.8C27.9 -134.1 55.9 -132.3 76.9 -119.2" fill="#dd74c9"></path></g></svg>